<?xml version="1.0" encoding="UTF-8" standalone="no"?>
<!-- Created with Inkscape (http://www.inkscape.org/) -->

<svg
   width="121.19663mm"
   height="138.89632mm"
   viewBox="0 0 121.19663 138.89632"
   version="1.1"
   id="svg2093"
   inkscape:version="1.2.2 (b0a8486541, 2022-12-01)"
   sodipodi:docname="logo.svg"
   xmlns:inkscape="http://www.inkscape.org/namespaces/inkscape"
   xmlns:sodipodi="http://sodipodi.sourceforge.net/DTD/sodipodi-0.dtd"
   xmlns="http://www.w3.org/2000/svg"
   xmlns:svg="http://www.w3.org/2000/svg">
  <sodipodi:namedview
     id="namedview2095"
     pagecolor="#ffffff"
     bordercolor="#666666"
     borderopacity="1.0"
     inkscape:showpageshadow="2"
     inkscape:pageopacity="0"
     inkscape:pagecheckerboard="false"
     inkscape:deskcolor="#d1d1d1"
     inkscape:document-units="mm"
     showgrid="false"
     inkscape:zoom="0.93806818"
     inkscape:cx="135.38462"
     inkscape:cy="231.85948"
     inkscape:window-width="1920"
     inkscape:window-height="1163"
     inkscape:window-x="0"
     inkscape:window-y="0"
     inkscape:window-maximized="1"
     inkscape:current-layer="layer1" />
  <defs
     id="defs2090" />
  <g
     inkscape:label="Ebene 1"
     inkscape:groupmode="layer"
     id="layer1"
     transform="translate(-89.711299,-80.197297)">
    <path
       d="m 103.3968,219.00414 c -4.087813,-0.40268 -7.582377,-1.16093 -9.816327,-2.1299 -1.546371,-0.67074 -3.241971,-1.90692 -3.612894,-2.63398 -0.514175,-1.00787 -0.230032,-2.49034 0.631898,-3.29684 1.180668,-1.10474 3.667103,-2.10318 6.374364,-2.55967 4.455569,-0.75127 8.157739,-0.94529 20.056739,-1.05111 16.11766,-0.14333 28.0842,0.39421 38.58366,1.73321 5.55446,0.70835 9.07284,1.60659 11.8312,3.02049 2.71815,1.39328 3.49641,2.97098 2.1263,4.31051 -1.44734,1.41505 -7.13616,1.71535 -14.57102,0.76916 -0.86234,-0.10973 -2.85628,-0.35271 -4.43098,-0.53994 -1.57471,-0.18723 -4.30489,-0.52414 -6.06706,-0.74869 -3.45546,-0.44032 -6.40116,-0.53508 -8.22234,-0.26451 -0.53926,0.0801 -2.79036,0.50859 -5.00245,0.95218 -9.94129,1.99353 -14.00296,2.46628 -21.67772,2.52312 -2.73698,0.0202 -5.5285,-0.0175 -6.20337,-0.084 z"
       style="fill:#c4202f;fill-opacity:1;stroke-width:0.136338"
       id="path417" />
    <path
       d="m 119.89368,204.83583 c -1.84616,-0.41183 -3.00862,-1.06386 -4.31911,-2.42262 -2.3231,-2.40863 -2.79569,-5.90999 -1.21571,-9.007 0.16124,-0.31605 0.65302,-1.12268 1.09283,-1.79249 1.90758,-2.90507 3.37782,-6.46698 4.36372,-10.57184 0.51837,-2.1583 1.01779,-2.84533 1.86342,-2.56345 0.67887,0.22629 1.15286,0.98225 1.28733,2.05314 0.12056,0.96022 0.80494,2.14737 0.75785,2.39855 -0.12799,0.68223 0.73803,3.53993 1.63702,5.40183 0.4153,0.86014 1.1372,2.14853 1.60423,2.86309 1.3145,2.01124 1.70232,2.75449 2.07755,3.98157 0.39172,1.28099 0.38844,2.49939 -0.0108,3.9982 -0.63222,2.37368 -2.81685,4.63876 -5.18939,5.38053 -1.05854,0.33095 -3.0793,0.47447 -3.94894,0.28049 z m 2.23075,-2.87255 c 2.20683,-0.35809 3.97356,-2.1661 4.19028,-4.28818 0.13148,-1.28746 -0.20612,-2.31264 -1.41425,-4.29464 -1.42279,-2.33418 -2.67582,-4.85059 -2.96785,-5.96024 -0.13387,-0.50866 -0.30588,-1.00604 -0.38224,-1.10528 -0.17115,-0.22245 -0.34403,0.0787 -0.84939,1.4797 -0.4496,1.24638 -1.63363,3.52599 -2.67241,5.14517 -1.3348,2.08058 -1.53222,2.60988 -1.53821,4.12384 -0.005,1.19373 0.0303,1.36931 0.43874,2.1997 0.60014,1.22012 1.88227,2.27689 3.18895,2.6284 0.90305,0.24294 0.94156,0.24431 2.00638,0.0715 z"
       style="fill:#c4202f;fill-opacity:1;stroke-width:0.136338"
       id="path2050" />
    <path
       style="fill:#4d4d4d;stroke:#000000;stroke-width:1.136;stroke-dasharray:none;stroke-opacity:1"
       d="m 131.82325,180.63272 c -2.11011,-0.23387 -2.90536,-0.39513 -4.89334,-0.99225 -1.00135,-0.30077 -1.74864,-0.60135 -1.83485,-0.73803 -0.11016,-0.17464 -0.0681,-0.42279 0.17318,-1.02248 1.24125,-3.08474 3.48159,-7.81669 5.82934,-12.31244 2.80787,-5.37687 4.23134,-7.99737 4.81384,-8.86196 0.27787,-0.41243 0.81156,-1.30203 1.18598,-1.97691 1.97161,-3.55367 7.74431,-12.46646 10.19917,-15.74702 0.75751,-1.01231 1.62709,-2.20868 1.93241,-2.65859 0.3053,-0.44991 0.76255,-1.0731 1.0161,-1.38485 0.25355,-0.31176 0.79843,-1.00998 1.21085,-1.55162 1.52265,-1.99969 3.3999,-4.33848 4.63549,-5.77516 0.33744,-0.39235 1.04299,-1.22472 1.56789,-1.84971 1.38717,-1.65166 3.96158,-4.59305 4.76205,-5.44086 1.44346,-1.52883 6.0864,-6.13568 7.38304,-7.32564 4.78251,-4.38905 5.01593,-4.59428 7.952,-6.99142 0.49443,-0.40367 1.29774,-1.08236 1.78516,-1.50819 0.4874,-0.42585 1.10092,-0.92175 1.36338,-1.10202 0.26244,-0.18027 0.91469,-0.69795 1.44942,-1.15039 0.53473,-0.45245 1.23688,-1.03736 1.56032,-1.29981 0.80348,-0.65195 4.59312,-3.502704 5.43724,-4.090139 0.69229,-0.481776 1.87331,-1.382057 2.73917,-2.088037 0.36649,-0.29881 0.19899,-0.240745 -0.7563,0.262189 -0.67487,0.355299 -1.5338,0.842292 -1.90873,1.082202 -0.64114,0.410255 -1.45584,0.921839 -3.78967,2.379701 -0.54019,0.337436 -1.25824,0.812772 -1.59568,1.056302 -0.91211,0.658272 -2.43109,1.739792 -3.20394,2.281212 -2.58049,1.80776 -5.85378,4.27991 -7.49859,5.66329 -0.67488,0.56761 -1.50314,1.24076 -1.84057,1.49587 -0.33743,0.25512 -1.06919,0.86595 -1.62612,1.35739 -0.55693,0.49144 -1.23938,1.07759 -1.51656,1.30254 -1.07834,0.8752 -4.6705,4.20259 -7.01211,6.49527 -3.97473,3.89168 -10.31601,10.87635 -13.41255,14.77343 -0.53625,0.67488 -1.30225,1.62583 -1.70223,2.11324 -1.98004,2.41288 -8.46678,11.28726 -9.08134,12.42399 -0.14702,0.27193 -0.71473,1.12749 -1.26157,1.90124 -1.05778,1.49665 -1.68451,2.45008 -2.90629,4.42123 -1.51395,2.44253 -2.63799,4.24143 -3.10943,4.97633 -0.26457,0.41243 -0.95466,1.60879 -1.53352,2.65859 -0.57887,1.04981 -1.4808,2.67563 -2.00428,3.61296 -2.0313,3.63716 -3.77206,7.00336 -4.86605,9.40972 -0.45961,1.01099 -0.89002,1.89252 -0.95645,1.95895 -0.20213,0.20214 -1.52824,-0.97109 -2.07491,-1.83569 -0.80363,-1.27098 -0.92904,-1.56679 -1.47662,-3.48285 -1.37675,-4.81755 -1.33079,-9.786 0.14761,-15.95723 0.30241,-1.26233 0.60578,-2.44853 0.67418,-2.63598 0.0684,-0.18747 0.40777,-1.16911 0.75419,-2.18142 0.87356,-2.5528 1.76548,-4.75515 3.09204,-7.63492 0.22452,-0.48741 0.51872,-1.16228 0.65379,-1.49972 0.13507,-0.33743 0.64557,-1.41659 1.13446,-2.39812 0.48888,-0.98153 0.97943,-2.00132 1.0901,-2.26621 0.11068,-0.26489 0.533,-1.05696 0.93848,-1.76018 0.40549,-0.70322 0.78329,-1.40128 0.83957,-1.55125 0.0563,-0.14997 0.42856,-0.82485 0.82731,-1.49972 0.39874,-0.67487 0.89168,-1.52327 1.09542,-1.88535 0.20375,-0.36207 0.3978,-0.63096 0.43123,-0.59753 0.0334,0.0335 10e-4,0.32967 -0.072,0.65831 -0.26798,1.2061 -0.55818,3.89372 -0.55818,5.16954 0,4.51669 1.78404,9.08258 4.32012,11.05643 1.25607,0.97761 1.51777,0.98862 1.19035,0.05 -0.41615,-1.19288 -0.74117,-2.56722 -0.877,-3.70833 -0.0785,-0.65971 -0.20917,-1.75166 -0.29032,-2.42653 -0.45859,-3.8134 0.57881,-9.64619 2.49601,-14.03397 1.23927,-2.83625 3.35653,-6.63849 4.50667,-8.09322 0.27882,-0.35267 0.76628,-1.00933 1.08323,-1.45925 0.31695,-0.44991 0.85806,-1.12478 1.20246,-1.49972 0.34441,-0.37492 0.98295,-1.12569 1.41897,-1.66837 0.98757,-1.22915 3.85516,-4.21675 3.95324,-4.11868 0.0399,0.0399 -0.0526,0.46873 -0.20559,0.95291 -0.54769,1.73333 -0.84513,5.49518 -0.54392,6.87921 0.13861,0.63688 0.2661,0.24746 0.49736,-1.51915 0.45738,-3.49395 1.73087,-7.14366 3.30554,-9.47341 1.78015,-2.63376 6.73567,-7.501208 7.18225,-7.054621 0.0406,0.04059 -0.0187,0.375333 -0.13176,0.743879 -0.11305,0.368542 -0.27735,1.414752 -0.3651,2.324912 -0.20434,2.11941 -0.029,3.84696 0.57253,5.63925 0.6413,1.91093 2.37212,4.63549 2.94476,4.63549 0.23506,0 0.23322,-0.17694 -0.0178,-1.70422 -0.27197,-1.65533 -0.25448,-2.81775 0.0726,-4.82227 0.63675,-3.90261 1.58612,-6.155573 3.86201,-9.165009 0.92783,-1.226857 3.16227,-3.502886 4.58839,-4.673791 1.06494,-0.874354 4.06994,-3.077157 4.77184,-3.497977 0.41241,-0.247267 0.87256,-0.55382 1.02253,-0.681229 0.72828,-0.618716 8.24833,-4.920654 8.41815,-4.815704 0.0598,0.03699 -0.13103,0.339713 -0.42416,0.672727 -1.70981,1.942439 -3.57924,5.778375 -3.55867,7.3021 0.004,0.303769 0.0147,0.307585 0.19432,0.07045 0.10449,-0.137895 0.35976,-0.659387 0.56727,-1.158871 1.11214,-2.676909 4.05843,-5.664667 7.33636,-7.439619 0.51951,-0.281302 1.54839,-0.752024 2.28641,-1.046049 l 1.34185,-0.534591 h 9.6618 9.66183 l 0.17093,0.905889 c 0.10859,0.575551 0.14425,1.482877 0.0978,2.488167 -0.0616,1.331571 -0.15051,1.813301 -0.56129,3.040327 -0.60359,1.802957 -1.57868,3.79465 -2.6654,5.444195 -0.45519,0.690953 -0.80311,1.28079 -0.77315,1.310749 0.0299,0.02996 0.29049,-0.06802 0.57896,-0.217727 0.46928,-0.243557 1.62859,-1.498334 2.69476,-2.916679 0.45928,-0.610973 0.62464,-0.644349 0.62464,-0.126075 0,0.397123 -0.76783,3.121474 -0.94812,3.364101 -0.0557,0.07499 -0.30281,0.627154 -0.54907,1.22704 -0.57905,1.41054 -1.02925,2.213045 -2.40922,4.294644 -3.10135,4.678162 -7.3344,7.908012 -13.36964,10.201132 -3.27529,1.24446 -6.10023,1.78875 -9.52876,1.83592 -1.15333,0.0159 -2.09739,0.0729 -2.0979,0.12668 -0.002,0.23505 1.58663,1.2654 2.42309,1.57133 1.93382,0.70729 3.49908,0.98345 5.59158,0.98655 2.13894,0.003 3.22624,-0.16792 5.10633,-0.80343 1.53052,-0.51735 3.75132,-1.55826 4.91855,-2.30537 0.51153,-0.32743 0.96887,-0.55652 1.01629,-0.50909 0.11613,0.11612 -1.94182,4.13492 -2.91255,5.68766 -1.93354,3.09286 -2.59519,4.09443 -3.71614,5.6253 -1.9116,2.61064 -3.40728,4.43996 -5.22504,6.39056 -1.88734,2.02526 -2.23298,2.34374 -3.79459,3.49652 -2.00077,1.47695 -3.78065,2.2233 -6.31334,2.64736 -0.53941,0.0903 -0.97079,0.22368 -0.95864,0.29638 0.0368,0.22036 1.14084,0.35747 2.29564,0.28509 0.76479,-0.0479 1.5124,-0.21541 2.50195,-0.5605 0.77618,-0.27069 1.48174,-0.46683 1.56789,-0.43587 0.17371,0.0624 -1.77057,2.08428 -7.46742,7.76533 -4.00126,3.99017 -4.59109,4.46249 -6.58718,5.27481 -1.20704,0.4912 -3.06983,0.91128 -4.6034,1.03811 -1.11153,0.0919 -1.18212,0.11379 -0.74986,0.23219 0.26245,0.0719 1.5355,0.13712 2.82901,0.14496 1.29351,0.008 2.35183,0.0549 2.35183,0.10453 0,0.1763 -6.2188,6.44539 -7.1393,7.19702 -4.60122,3.75713 -7.45468,5.28085 -11.277,6.02181 -2.63535,0.51087 -4.5212,0.4908 -8.3572,-0.0889 -0.74056,-0.11191 -1.38476,-0.16377 -1.43155,-0.11524 -0.15002,0.15556 1.36324,1.40253 2.63557,2.17179 0.67822,0.41005 1.75463,0.93763 2.39202,1.1724 2.90005,1.06817 6.78019,1.05604 10.08901,-0.0315 2.17957,-0.7164 5.39343,-2.47592 7.61129,-4.16704 0.32443,-0.24738 0.65002,-0.44978 0.72352,-0.44978 0.0735,0 -0.47689,0.75156 -1.22306,1.67014 -4.06701,5.00663 -8.62061,9.45146 -12.4971,12.19856 -4.33096,3.06918 -8.17849,5.01788 -11.63237,5.89155 -2.6395,0.66768 -4.78858,0.80399 -7.65946,0.48579 z"
       id="path311"
       sodipodi:nodetypes="csssssssssssssssssssssssssssssssssssssssssssssssssssssssssssscssssssssssssssssssssssscscsscccsccscsssssssscscsssssssssssssssssssssssssssssscc" />
  </g>
</svg>
