<?xml version="1.0" encoding="UTF-8" standalone="no"?>
<!-- Created with Inkscape (http://www.inkscape.org/) -->

<svg
   width="120.95364mm"
   height="138.46935mm"
   viewBox="0 0 120.95364 138.46935"
   version="1.1"
   id="svg2093"
   inkscape:version="1.2.2 (b0a8486541, 2022-12-01)"
   sodipodi:docname="logo.svg"
   xmlns:inkscape="http://www.inkscape.org/namespaces/inkscape"
   xmlns:sodipodi="http://sodipodi.sourceforge.net/DTD/sodipodi-0.dtd"
   xmlns="http://www.w3.org/2000/svg"
   xmlns:svg="http://www.w3.org/2000/svg">
  <sodipodi:namedview
     id="namedview2095"
     pagecolor="#ffffff"
     bordercolor="#666666"
     borderopacity="1.0"
     inkscape:showpageshadow="2"
     inkscape:pageopacity="0"
     inkscape:pagecheckerboard="false"
     inkscape:deskcolor="#d1d1d1"
     inkscape:document-units="mm"
     showgrid="false"
     inkscape:zoom="0.93806818"
     inkscape:cx="141.24773"
     inkscape:cy="228.66142"
     inkscape:window-width="1920"
     inkscape:window-height="1163"
     inkscape:window-x="0"
     inkscape:window-y="0"
     inkscape:window-maximized="1"
     inkscape:current-layer="layer1" />
  <defs
     id="defs2090" />
  <g
     inkscape:label="Ebene 1"
     inkscape:groupmode="layer"
     id="layer1"
     transform="translate(-89.523377,-80.765297)">
    <path
       d="m 103.3968,219.00414 c -4.087813,-0.40268 -7.582377,-1.16093 -9.816327,-2.1299 -1.546371,-0.67074 -3.241971,-1.90692 -3.612894,-2.63398 -0.514175,-1.00787 -0.230032,-2.49034 0.631898,-3.29684 1.180668,-1.10474 3.667103,-2.10318 6.374364,-2.55967 4.455569,-0.75127 8.157739,-0.94529 20.056739,-1.05111 16.11766,-0.14333 28.0842,0.39421 38.58366,1.73321 5.55446,0.70835 9.07284,1.60659 11.8312,3.02049 2.71815,1.39328 3.49641,2.97098 2.1263,4.31051 -1.44734,1.41505 -7.13616,1.71535 -14.57102,0.76916 -0.86234,-0.10973 -2.85628,-0.35271 -4.43098,-0.53994 -1.57471,-0.18723 -4.30489,-0.52414 -6.06706,-0.74869 -3.45546,-0.44032 -6.40116,-0.53508 -8.22234,-0.26451 -0.53926,0.0801 -2.79036,0.50859 -5.00245,0.95218 -9.94129,1.99353 -14.00296,2.46628 -21.67772,2.52312 -2.73698,0.0202 -5.5285,-0.0175 -6.20337,-0.084 z"
       style="fill:#c4202f;fill-opacity:1;stroke-width:0.136338"
       id="path417" />
    <path
       d="m 119.89368,204.83583 c -1.84616,-0.41183 -3.00862,-1.06386 -4.31911,-2.42262 -2.3231,-2.40863 -2.79569,-5.90999 -1.21571,-9.007 0.16124,-0.31605 0.65302,-1.12268 1.09283,-1.79249 1.90758,-2.90507 3.37782,-6.46698 4.36372,-10.57184 0.51837,-2.1583 1.01779,-2.84533 1.86342,-2.56345 0.67887,0.22629 1.15286,0.98225 1.28733,2.05314 0.12056,0.96022 0.80494,2.14737 0.75785,2.39855 -0.12799,0.68223 0.73803,3.53993 1.63702,5.40183 0.4153,0.86014 1.1372,2.14853 1.60423,2.86309 1.3145,2.01124 1.70232,2.75449 2.07755,3.98157 0.39172,1.28099 0.38844,2.49939 -0.0108,3.9982 -0.63222,2.37368 -2.81685,4.63876 -5.18939,5.38053 -1.05854,0.33095 -3.0793,0.47447 -3.94894,0.28049 z m 2.23075,-2.87255 c 2.20683,-0.35809 3.97356,-2.1661 4.19028,-4.28818 0.13148,-1.28746 -0.20612,-2.31264 -1.41425,-4.29464 -1.42279,-2.33418 -2.67582,-4.85059 -2.96785,-5.96024 -0.13387,-0.50866 -0.30588,-1.00604 -0.38224,-1.10528 -0.17115,-0.22245 -0.34403,0.0787 -0.84939,1.4797 -0.4496,1.24638 -1.63363,3.52599 -2.67241,5.14517 -1.3348,2.08058 -1.53222,2.60988 -1.53821,4.12384 -0.005,1.19373 0.0303,1.36931 0.43874,2.1997 0.60014,1.22012 1.88227,2.27689 3.18895,2.6284 0.90305,0.24294 0.94156,0.24431 2.00638,0.0715 z"
       style="fill:#c4202f;fill-opacity:1;stroke-width:0.136338"
       id="path2050" />
    <path
       style="fill:#4d4d4d;stroke-width:0.136338"
       d="m 131.82325,180.63272 c -2.11011,-0.23387 -2.90536,-0.39513 -4.89334,-0.99225 -1.00135,-0.30077 -1.74864,-0.60135 -1.83485,-0.73803 -0.11016,-0.17464 -0.0681,-0.42279 0.17318,-1.02248 1.24125,-3.08474 3.48159,-7.81669 5.82934,-12.31244 2.80787,-5.37687 4.23134,-7.99737 4.81384,-8.86196 0.27787,-0.41243 0.81156,-1.30203 1.18598,-1.97691 1.97161,-3.55367 7.74431,-12.46646 10.19917,-15.74702 0.75751,-1.01231 1.62709,-2.20868 1.93241,-2.65859 0.3053,-0.44991 0.76255,-1.0731 1.0161,-1.38485 0.25355,-0.31176 0.79843,-1.00998 1.21085,-1.55162 1.52265,-1.99969 3.3999,-4.33848 4.63549,-5.77516 0.33744,-0.39235 1.04299,-1.22472 1.56789,-1.84971 1.38717,-1.65166 3.96158,-4.59305 4.76205,-5.44086 1.44346,-1.52883 6.0864,-6.13568 7.38304,-7.32564 4.78251,-4.38905 5.01593,-4.59428 7.952,-6.99142 0.49443,-0.40367 1.29774,-1.08236 1.78516,-1.50819 0.4874,-0.42585 1.10092,-0.92175 1.36338,-1.10202 0.26244,-0.18027 0.91469,-0.69795 1.44942,-1.15039 0.53473,-0.45245 1.23688,-1.03736 1.56032,-1.29981 0.80348,-0.65195 4.59312,-3.502704 5.43724,-4.090139 0.69229,-0.481776 1.87331,-1.382057 2.73917,-2.088037 0.36649,-0.29881 0.19899,-0.240745 -0.7563,0.262189 -0.67487,0.355299 -1.5338,0.842292 -1.90873,1.082202 -0.64114,0.410255 -1.45584,0.921839 -3.78967,2.379701 -0.54019,0.337436 -1.25824,0.812772 -1.59568,1.056302 -0.91211,0.658272 -2.43109,1.739792 -3.20394,2.281212 -2.58049,1.80776 -5.85378,4.27991 -7.49859,5.66329 -0.67488,0.56761 -1.50314,1.24076 -1.84057,1.49587 -0.33743,0.25512 -1.06919,0.86595 -1.62612,1.35739 -0.55693,0.49144 -1.23938,1.07759 -1.51656,1.30254 -1.07834,0.8752 -4.6705,4.20259 -7.01211,6.49527 -3.97473,3.89168 -10.31601,10.87635 -13.41255,14.77343 -0.53625,0.67488 -1.30225,1.62583 -1.70223,2.11324 -1.98004,2.41288 -8.46678,11.28726 -9.08134,12.42399 -0.14702,0.27193 -0.71473,1.12749 -1.26157,1.90124 -1.05778,1.49665 -1.68451,2.45008 -2.90629,4.42123 -1.51395,2.44253 -2.63799,4.24143 -3.10943,4.97633 -0.26457,0.41243 -0.95466,1.60879 -1.53352,2.65859 -0.57887,1.04981 -1.4808,2.67563 -2.00428,3.61296 -2.0313,3.63716 -3.77206,7.00336 -4.86605,9.40972 -0.45961,1.01099 -0.89002,1.89252 -0.95645,1.95895 -0.20213,0.20214 -1.52824,-0.97109 -2.07491,-1.83569 -0.80363,-1.27098 -0.92904,-1.56679 -1.47662,-3.48285 -1.37675,-4.81755 -1.33079,-9.786 0.14761,-15.95723 0.30241,-1.26233 0.60578,-2.44853 0.67418,-2.63598 0.0684,-0.18747 0.40777,-1.16911 0.75419,-2.18142 0.87356,-2.5528 1.76548,-4.75515 3.09204,-7.63492 0.22452,-0.48741 0.51872,-1.16228 0.65379,-1.49972 0.13507,-0.33743 0.64557,-1.41659 1.13446,-2.39812 0.48888,-0.98153 0.97943,-2.00132 1.0901,-2.26621 0.11068,-0.26489 0.533,-1.05696 0.93848,-1.76018 0.40549,-0.70322 0.78329,-1.40128 0.83957,-1.55125 0.0563,-0.14997 0.42856,-0.82485 0.82731,-1.49972 0.39874,-0.67487 0.89168,-1.52327 1.09542,-1.88535 0.20375,-0.36207 0.3978,-0.63096 0.43123,-0.59753 0.0334,0.0335 10e-4,0.32967 -0.072,0.65831 -0.26798,1.2061 -0.55818,3.89372 -0.55818,5.16954 0,4.51669 1.78404,9.08258 4.32012,11.05643 1.25607,0.97761 1.51777,0.98862 1.19035,0.05 -0.41615,-1.19288 -0.74117,-2.56722 -0.877,-3.70833 -0.0785,-0.65971 -0.20917,-1.75166 -0.29032,-2.42653 -0.45859,-3.8134 0.57881,-9.64619 2.49601,-14.03397 1.23927,-2.83625 3.35653,-6.63849 4.50667,-8.09322 0.27882,-0.35267 0.76628,-1.00933 1.08323,-1.45925 0.31695,-0.44991 0.85806,-1.12478 1.20246,-1.49972 0.34441,-0.37492 0.98295,-1.12569 1.41897,-1.66837 0.98757,-1.22915 3.85516,-4.21675 3.95324,-4.11868 0.0399,0.0399 -0.0526,0.46873 -0.20559,0.95291 -0.54769,1.73333 -0.84513,5.49518 -0.54392,6.87921 0.13861,0.63688 0.2661,0.24746 0.49736,-1.51915 0.45738,-3.49395 1.73087,-7.14366 3.30554,-9.47341 1.78015,-2.63376 6.73567,-7.501208 7.18225,-7.054621 0.0406,0.04059 -0.0187,0.375333 -0.13176,0.743879 -0.11305,0.368542 -0.27735,1.414752 -0.3651,2.324912 -0.20434,2.11941 -0.029,3.84696 0.57253,5.63925 0.6413,1.91093 2.37212,4.63549 2.94476,4.63549 0.23506,0 0.23322,-0.17694 -0.0178,-1.70422 -0.27197,-1.65533 -0.25448,-2.81775 0.0726,-4.82227 0.63675,-3.90261 1.58612,-6.155573 3.86201,-9.165009 0.92783,-1.226857 3.16227,-3.502886 4.58839,-4.673791 1.06494,-0.874354 4.06994,-3.077157 4.77184,-3.497977 0.41241,-0.247267 0.87256,-0.55382 1.02253,-0.681229 0.72828,-0.618716 8.24833,-4.920654 8.41815,-4.815704 0.0598,0.03699 -0.13103,0.339713 -0.42416,0.672727 -1.70981,1.942439 -3.57924,5.778375 -3.55867,7.3021 0.004,0.303769 0.0147,0.307585 0.19432,0.07045 0.10449,-0.137895 0.35976,-0.659387 0.56727,-1.158871 1.11214,-2.676909 4.05843,-5.664667 7.33636,-7.439619 0.51951,-0.281302 1.54839,-0.752024 2.28641,-1.046049 l 1.34185,-0.534591 h 9.6618 9.66183 l 0.17093,0.905889 c 0.10859,0.575551 0.14425,1.482877 0.0978,2.488167 -0.0616,1.331571 -0.15051,1.813301 -0.56129,3.040327 -0.60359,1.802957 -1.57868,3.79465 -2.6654,5.444195 -0.45519,0.690953 -0.80311,1.28079 -0.77315,1.310749 0.0299,0.02996 0.29049,-0.06802 0.57896,-0.217727 0.46928,-0.243557 1.62859,-1.498334 2.69476,-2.916679 0.45928,-0.610973 0.62464,-0.644349 0.62464,-0.126075 0,0.397123 -0.76783,3.121474 -0.94812,3.364101 -0.0557,0.07499 -0.30281,0.627154 -0.54907,1.22704 -0.57905,1.41054 -1.02925,2.213045 -2.40922,4.294644 -3.10135,4.678162 -7.3344,7.908012 -13.36964,10.201132 -3.27529,1.24446 -6.10023,1.78875 -9.52876,1.83592 -1.15333,0.0159 -2.09739,0.0729 -2.0979,0.12668 -0.002,0.23505 1.58663,1.2654 2.42309,1.57133 1.93382,0.70729 3.49908,0.98345 5.59158,0.98655 2.13894,0.003 3.22624,-0.16792 5.10633,-0.80343 1.53052,-0.51735 3.75132,-1.55826 4.91855,-2.30537 0.51153,-0.32743 0.96887,-0.55652 1.01629,-0.50909 0.11613,0.11612 -1.94182,4.13492 -2.91255,5.68766 -1.93354,3.09286 -2.59519,4.09443 -3.71614,5.6253 -1.9116,2.61064 -3.40728,4.43996 -5.22504,6.39056 -1.88734,2.02526 -2.23298,2.34374 -3.79459,3.49652 -2.00077,1.47695 -3.78065,2.2233 -6.31334,2.64736 -0.53941,0.0903 -0.97079,0.22368 -0.95864,0.29638 0.0368,0.22036 1.14084,0.35747 2.29564,0.28509 0.76479,-0.0479 1.5124,-0.21541 2.50195,-0.5605 0.77618,-0.27069 1.48174,-0.46683 1.56789,-0.43587 0.17371,0.0624 -1.77057,2.08428 -7.46742,7.76533 -4.00126,3.99017 -4.59109,4.46249 -6.58718,5.27481 -1.20704,0.4912 -3.06983,0.91128 -4.6034,1.03811 -1.11153,0.0919 -1.18212,0.11379 -0.74986,0.23219 0.26245,0.0719 1.5355,0.13712 2.82901,0.14496 1.29351,0.008 2.35183,0.0549 2.35183,0.10453 0,0.1763 -6.2188,6.44539 -7.1393,7.19702 -4.60122,3.75713 -7.45468,5.28085 -11.277,6.02181 -2.63535,0.51087 -4.5212,0.4908 -8.3572,-0.0889 -0.74056,-0.11191 -1.38476,-0.16377 -1.43155,-0.11524 -0.15002,0.15556 1.36324,1.40253 2.63557,2.17179 0.67822,0.41005 1.75463,0.93763 2.39202,1.1724 2.90005,1.06817 6.78019,1.05604 10.08901,-0.0315 2.17957,-0.7164 5.39343,-2.47592 7.61129,-4.16704 0.32443,-0.24738 0.65002,-0.44978 0.72352,-0.44978 0.0735,0 -0.47689,0.75156 -1.22306,1.67014 -4.06701,5.00663 -8.62061,9.45146 -12.4971,12.19856 -4.33096,3.06918 -8.17849,5.01788 -11.63237,5.89155 -2.6395,0.66768 -4.78858,0.80399 -7.65946,0.48579 z"
       id="path311"
       sodipodi:nodetypes="csssssssssssssssssssssssssssssssssssssssssssssssssssssssssssscssssssssssssssssssssssscscsscccsccscsssssssscscsssssssssssssssssssssssssssssscc" />
    <path
       style="fill:#000000;stroke-width:0.136338"
       d="m 132.64128,180.87835 c -1.77592,-0.13811 -3.81667,-0.50873 -5.39198,-0.97924 -2.15051,-0.64232 -2.51562,-0.78425 -2.51562,-0.97793 0,-0.18432 0.58301,-1.67888 1.08782,-2.78867 0.20496,-0.45056 0.4176,-0.96087 0.47255,-1.134 0.12419,-0.39129 3.10631,-6.59706 3.48371,-7.24958 0.1518,-0.26245 0.74952,-1.39747 1.32828,-2.52225 1.00178,-1.94691 1.30098,-2.51885 2.78981,-5.33266 0.35257,-0.66636 0.90474,-1.65383 1.22704,-2.19436 0.3223,-0.54055 1.13545,-1.92097 1.80701,-3.0676 0.67157,-1.14665 1.42313,-2.40396 1.67015,-2.79403 0.24701,-0.39008 0.44911,-0.74305 0.44911,-0.78437 0,-0.0414 0.485,-0.79858 1.07777,-1.68276 0.59277,-0.8842 1.24482,-1.91165 1.44901,-2.28324 0.20417,-0.37159 0.54844,-0.92102 0.76501,-1.22096 0.21658,-0.29995 1.19593,-1.74173 2.17631,-3.20395 0.98039,-1.46222 2.12974,-3.12704 2.55412,-3.69959 0.42438,-0.57255 1.04768,-1.41228 1.38512,-1.86606 0.33743,-0.45377 0.8896,-1.20024 1.22704,-1.6588 1.38687,-1.88472 1.7786,-2.39389 3.40844,-4.43026 2.03665,-2.54463 2.4813,-3.0858 3.81747,-4.64616 1.13865,-1.32968 1.89385,-2.2138 2.98354,-3.49282 1.86582,-2.19 6.96307,-7.40689 9.64411,-9.87048 2.45009,-2.25138 4.47698,-4.09487 4.89178,-4.44919 0.88391,-0.75503 2.19421,-1.84613 3.05274,-2.54208 0.49559,-0.40173 1.29142,-1.0766 1.76852,-1.49972 0.47709,-0.42311 1.1285,-0.95335 1.44756,-1.17831 0.31907,-0.22496 1.01596,-0.77712 1.54864,-1.22704 1.52349,-1.28677 1.60837,-1.35424 3.82341,-3.039697 2.44595,-1.861147 2.60525,-1.978906 3.57647,-2.643716 0.40382,-0.276416 0.88759,-0.636471 1.07505,-0.800122 l 0.34085,-0.297549 -0.34085,0.200845 c -0.18746,0.110463 -1.15589,0.715926 -2.15204,1.345474 -0.99617,0.629545 -2.2574,1.420712 -2.80274,1.758149 -0.54535,0.337436 -1.4676,0.950957 -2.04948,1.363379 -0.58187,0.412427 -1.53524,1.087297 -2.11859,1.499717 -3.32479,2.35056 -6.34378,4.61885 -7.98757,6.00137 -0.67486,0.56761 -1.50312,1.24026 -1.84056,1.49477 -0.33743,0.25451 -1.07366,0.86954 -1.63606,1.36673 -0.56239,0.4972 -1.35997,1.17914 -1.77239,1.51544 -0.41242,0.33631 -0.96613,0.82291 -1.23046,1.08136 -0.26433,0.25844 -1.4607,1.36728 -2.65859,2.46409 -2.10177,1.92443 -5.31604,5.13108 -7.70788,7.68963 -1.281,1.37029 -1.59308,1.7161 -3.31861,3.67727 -0.65976,0.74987 -1.37083,1.52898 -1.58017,1.7314 -0.20933,0.2024 -0.6163,0.66254 -0.90437,1.02253 -0.28807,0.35999 -0.89491,1.08399 -1.34853,1.60889 -0.45363,0.5249 -1.06454,1.26113 -1.35759,1.63605 -0.29306,0.37493 -0.61157,0.77372 -0.7078,0.8862 -0.28698,0.33543 -1.81631,2.28245 -3.05004,3.88308 -1.30032,1.68702 -1.27335,1.65098 -2.85822,3.81892 -0.63737,0.87187 -1.35982,1.85915 -1.60541,2.19396 -0.55865,0.76154 -1.65408,2.34345 -2.30513,3.32882 -1.06023,1.60467 -2.15857,3.22961 -2.55731,3.7834 -0.42361,0.58834 -0.99301,1.48193 -3.27957,5.14673 -0.70178,1.12479 -1.50905,2.41318 -1.79395,2.8631 -0.47179,0.74507 -1.0911,1.8369 -2.088,3.68112 -1.38457,2.56136 -2.25349,4.11874 -2.39615,4.29464 -0.14772,0.18214 -1.08868,1.98067 -2.91275,5.56734 -0.33045,0.64976 -0.92335,1.91586 -1.31754,2.81352 -0.3942,0.89768 -0.7767,1.65214 -0.85001,1.67657 -0.23188,0.0773 -1.79381,-1.3249 -2.21589,-1.98928 -1.03302,-1.62603 -1.80826,-3.99957 -2.25669,-6.90927 -0.34561,-2.24248 -0.32203,-5.85917 0.0556,-8.52112 0.25387,-1.78985 0.93446,-4.9817 1.38086,-6.47606 0.20354,-0.68135 1.50802,-4.466 1.71522,-4.97633 2.05515,-5.06156 4.95862,-11.18954 7.23494,-15.26984 0.64841,-1.16229 1.3911,-2.52737 1.65043,-3.03352 0.70545,-1.3769 0.9829,-1.23686 0.65154,0.32887 -0.31586,1.49248 -0.60527,3.9916 -0.6065,5.23724 -0.002,1.6996 0.35639,3.86757 0.90552,5.48254 0.94834,2.78899 2.32451,4.74921 4.18352,5.95899 l 0.38647,0.2515 -0.20527,-0.49126 c -0.95865,-2.29437 -1.5522,-7.75556 -1.19598,-11.00396 0.54863,-5.00304 2.12065,-9.46206 5.2164,-14.7963 0.75387,-1.29897 1.97604,-3.1305 2.22914,-3.34056 0.12751,-0.10582 0.43454,-0.50182 0.68228,-0.88 0.24775,-0.37818 0.7061,-0.96368 1.01856,-1.30112 0.31247,-0.33744 0.73008,-0.82825 0.92802,-1.0907 1.13873,-1.50987 4.60362,-5.18084 4.88999,-5.18084 0.25528,0 0.23387,0.16939 -0.15916,1.25894 -0.1887,0.5231 -0.4341,1.59952 -0.54535,2.39206 -0.21804,1.55326 -0.27608,4.25758 -0.0868,4.04527 0.0635,-0.0712 0.19161,-0.74304 0.28468,-1.4929 0.25311,-2.03927 0.89911,-4.32075 1.77578,-6.27154 0.70928,-1.57832 0.85926,-1.84992 1.67132,-3.02662 1.46769,-2.12673 4.57205,-5.35852 6.33452,-6.594535 0.98739,-0.692458 1.17541,-0.51225 0.80187,0.76853 -0.31198,1.069665 -0.52946,3.411245 -0.42893,4.618175 0.17399,2.08892 0.7781,3.95775 1.85361,5.73417 0.57795,0.95461 1.63452,2.20476 1.63452,1.93401 0,-0.053 -0.0984,-0.69391 -0.21871,-1.42421 -0.37387,-2.26996 -0.11057,-5.08904 0.76622,-8.20372 0.4754,-1.68876 1.85537,-4.416915 2.7287,-5.394522 0.20095,-0.224958 0.55273,-0.685098 0.7817,-1.022534 0.80526,-1.186685 3.64761,-3.824819 6.16743,-5.724299 1.93549,-1.459005 2.07994,-1.561475 3.0676,-2.176101 0.52491,-0.326647 0.98505,-0.63653 1.02254,-0.68863 0.0635,-0.08819 1.21346,-0.771714 3.68113,-2.187958 0.56239,-0.32277 1.32929,-0.781473 1.70422,-1.01934 0.9812,-0.622505 2.99986,-1.701126 3.18368,-1.701126 0.31328,0 0.14528,0.50283 -0.31803,0.951895 -1.21679,1.179361 -2.87884,4.155415 -3.54236,6.34295 -0.3232,1.06554 -0.24146,1.042695 0.24666,-0.06894 1.02325,-2.330365 2.70737,-4.321301 5.28729,-6.250582 1.61446,-1.207299 4.62256,-2.615451 5.5695,-2.607193 0.4041,0.0035 0.25316,0.09573 -0.95125,0.581116 -1.99998,0.806011 -3.1645,1.432918 -4.50364,2.424486 -2.0955,1.551611 -4.19074,3.936209 -4.84258,5.511329 -0.12413,0.299943 -0.34583,0.811073 -0.49268,1.135843 -0.14684,0.324771 -0.44264,1.245051 -0.6573,2.045069 -0.0764,0.383057 -0.33492,0.911419 -0.51296,1.059036 -0.17804,0.147617 -0.12992,0.01565 -0.1006,-0.387739 0.0855,-1.143978 0.73469,-4.176057 1.01377,-4.734643 0.13216,-0.26452 0.3511,-0.787705 0.48654,-1.162635 0.24304,-0.672811 1.29255,-2.374162 2.18907,-3.548664 l 0.46059,-0.6034 -0.7907,0.439977 c -0.43488,0.241987 -1.12361,0.642609 -1.53051,0.890268 -1.21301,0.738286 -3.96686,2.359073 -4.62546,2.722316 -0.33743,0.186111 -0.73623,0.446663 -0.8862,0.579004 -0.14997,0.132341 -0.61011,0.443667 -1.02254,0.691836 -0.41241,0.248169 -0.96459,0.611284 -1.22703,0.806922 -2.02421,1.508901 -3.36136,2.53429 -3.47662,2.666023 -0.075,0.0857 -0.28973,0.25759 -0.47719,0.381974 -0.57767,0.383289 -3.40939,3.254825 -3.84975,3.903878 -0.22895,0.337436 -0.58068,0.797576 -0.78164,1.022534 -0.47066,0.526856 -1.37781,2.065695 -1.90609,3.23338 -1.35906,3.00396 -1.96385,7.34862 -1.4383,10.33225 0.27293,1.54935 0.26721,1.63605 -0.10794,1.63605 -0.63754,0 -2.23159,-2.12485 -2.96612,-3.9538 -0.69152,-1.72184 -0.94791,-3.08433 -0.94788,-5.0373 2e-5,-1.63857 0.20754,-3.4138 0.48294,-4.131427 0.16899,-0.440365 -0.17021,-0.24489 -1.31864,0.759877 -2.79868,2.4486 -4.70462,4.63755 -6.08678,6.99063 -0.22453,0.38226 -0.45458,0.8424 -0.51119,1.02254 -0.0566,0.18013 -0.24556,0.63427 -0.41984,1.0092 -1.00511,2.16223 -1.95695,6.4194 -1.96494,8.78832 -10e-4,0.4499 -0.0383,0.57033 -0.19221,0.49048 -0.26887,-0.15552 -0.41631,-1.07131 -0.49517,-1.78661 -0.20326,-1.87868 0.0186,-4.675 0.48977,-6.17418 0.30867,-0.98204 0.30925,-0.99529 0.0329,-0.74985 -0.50224,0.4461 -3.09282,3.31629 -3.85177,4.2675 -0.40643,0.50938 -0.93289,1.13287 -1.1699,1.38551 -0.23703,0.25266 -0.63282,0.76879 -0.87955,1.14697 -0.24672,0.37818 -0.55292,0.77418 -0.68042,0.88 -0.49867,0.41386 -2.34596,3.41688 -3.5591,5.78581 -1.99885,3.90319 -2.98694,6.82804 -3.6021,10.66262 -0.51744,3.22546 -0.26014,8.09914 0.57839,10.95576 0.70767,2.41081 0.67691,2.62296 -0.29451,2.03075 -1.8625,-1.13542 -3.30673,-3.14943 -4.30553,-6.00413 -0.85643,-2.44782 -1.20429,-5.77554 -0.84011,-8.03679 0.31125,-1.93266 0.38267,-2.65085 0.24903,-2.50431 -0.0656,0.072 -0.32084,0.49895 -0.56717,0.94886 -0.24632,0.44992 -0.88769,1.61561 -1.42527,2.59042 -1.66112,3.01218 -4.73954,9.53244 -6.24383,13.22478 -1.56014,3.82943 -2.89814,8.48823 -3.30867,11.52055 -0.1066,0.78736 -0.25691,1.89169 -0.33403,2.45409 -0.22399,1.63354 -0.1668,4.42571 0.13323,6.5043 0.58432,4.04811 1.78445,6.97998 3.36129,8.21151 0.40144,0.31352 0.72988,0.49648 0.72988,0.40655 0,-0.18017 0.0922,-0.38808 1.44565,-3.26096 0.51224,-1.0873 0.98278,-2.04866 1.04565,-2.13635 0.0629,-0.0877 0.57943,-1.06933 1.14794,-2.18141 0.56851,-1.11208 1.11087,-2.11398 1.20523,-2.22646 0.0944,-0.11248 0.48046,-0.8066 0.858,-1.54248 0.37753,-0.73588 0.74528,-1.41075 0.81722,-1.49972 0.072,-0.089 0.34322,-0.56054 0.60284,-1.04794 0.88467,-1.66092 1.86875,-3.40995 2.12933,-3.78451 0.29913,-0.43 1.94813,-3.05792 2.95266,-4.70551 0.87185,-1.42996 1.71794,-2.74443 2.21393,-3.43955 0.38446,-0.5388 1.56872,-2.29331 2.53072,-3.74929 0.65104,-0.98538 1.74648,-2.56728 2.30511,-3.32882 0.24561,-0.33481 0.96805,-1.32209 1.60543,-2.19396 0.63738,-0.87187 1.28158,-1.75093 1.43155,-1.95348 0.4922,-0.66475 2.56298,-3.34035 3.44663,-4.45331 1.3411,-1.68912 1.55721,-1.9553 2.70569,-3.33259 0.59048,-0.70812 1.37194,-1.65263 1.73658,-2.09891 0.36463,-0.44627 0.80474,-0.94054 0.97802,-1.09839 0.17327,-0.15786 0.85341,-0.90053 1.51142,-1.65039 2.44118,-2.78193 3.32307,-3.7295 6.45693,-6.9378 3.19607,-3.27199 9.61744,-9.14638 11.86388,-10.8533 0.33744,-0.2564 1.1657,-0.93127 1.84057,-1.49972 0.67488,-0.56844 1.65057,-1.33804 2.16821,-1.71022 0.51764,-0.37217 1.16183,-0.8641 1.43155,-1.09318 0.26971,-0.22907 0.91984,-0.71518 1.44474,-1.08023 0.52491,-0.36504 1.33118,-0.95986 1.79173,-1.3218 0.46055,-0.36194 0.88444,-0.65808 0.94198,-0.65808 0.0575,0 0.44763,-0.25984 0.86686,-0.57742 1.21429,-0.919857 2.34116,-1.707214 3.12607,-2.184238 0.40027,-0.243259 0.8683,-0.534316 1.04007,-0.646795 1.42384,-0.932356 4.18517,-2.627922 5.68471,-3.490636 2.88957,-1.662431 3.27519,-1.855867 3.41701,-1.714052 0.13737,0.137372 -0.009,0.263798 -1.18956,1.027782 -1.16072,0.751116 -2.40515,1.633309 -4.64187,3.29071 -0.20241,0.149971 -0.50528,0.364703 -0.67307,0.477182 -0.37982,0.254612 -4.36451,3.283017 -4.88023,3.709037 -0.20836,0.17211 -0.81468,0.68105 -1.34736,1.13096 -0.53269,0.44992 -1.23038,1.00209 -1.55044,1.22704 -0.32004,0.22496 -1.11815,0.86916 -1.77356,1.43155 -1.9942,1.71118 -3.09724,2.63863 -3.81177,3.20496 -0.37493,0.29717 -1.01912,0.85338 -1.43155,1.23601 -0.41242,0.38263 -1.18127,1.08908 -1.70856,1.56989 -2.98471,2.72163 -4.02243,3.70933 -6.38612,6.07824 -2.60146,2.60719 -4.61609,4.73097 -5.34524,5.63482 -0.21172,0.26245 -0.66405,0.7859 -1.00519,1.16322 -0.34112,0.37731 -1.0497,1.20211 -1.5746,1.83288 -0.5249,0.63078 -1.26113,1.50028 -1.63606,1.93225 -0.8414,0.96938 -0.91721,1.06218 -2.96997,3.63597 -1.59481,1.99961 -1.99302,2.5183 -3.36975,4.38923 -0.33743,0.45857 -0.8896,1.20503 -1.22704,1.65881 -0.33744,0.45378 -0.96074,1.2935 -1.38511,1.86605 -0.42438,0.57255 -1.57374,2.23737 -2.55412,3.69959 -0.98039,1.46223 -1.96025,2.90401 -2.17746,3.20395 -0.21723,0.29994 -0.50355,0.76008 -0.6363,1.02254 -0.13274,0.26244 -0.67037,1.12137 -1.19474,1.90872 -0.91076,1.36755 -1.75977,2.75803 -3.85306,6.31048 -0.52075,0.88374 -1.21052,2.04944 -1.53282,2.59042 -0.32229,0.54097 -0.8593,1.50509 -1.19335,2.14247 -0.33405,0.63738 -1.13109,2.14051 -1.77122,3.34028 -0.64013,1.19978 -1.41286,2.7029 -1.71718,3.34028 -0.30432,0.63738 -0.61543,1.23467 -0.69136,1.32733 -0.43925,0.53598 -4.87976,10.27889 -4.87976,10.70666 0,0.0376 0.10737,0.0987 0.23859,0.13577 0.13123,0.0371 1.00549,0.29563 1.94282,0.57446 3.38519,1.007 7.28586,1.28792 10.45039,0.75265 4.10939,-0.69512 7.81415,-2.4559 13.61327,-6.47008 1.81292,-1.25491 6.1149,-5.12364 7.9076,-7.11123 0.59989,-0.6651 1.40205,-1.54705 1.78258,-1.95988 1.10359,-1.19728 3.55184,-4.20184 3.04274,-3.73416 -0.90109,0.8278 -3.93636,2.69894 -5.57608,3.43747 -4.33074,1.95055 -8.98547,2.14034 -12.88304,0.5253 -0.66366,-0.275 -1.01815,-0.47724 -2.47716,-1.41324 -1.3177,-0.84535 -2.64143,-2.23066 -2.12425,-2.22306 0.0562,9.2e-4 1.14524,0.15397 2.42,0.34033 4.21714,0.61651 7.58458,0.36709 10.56621,-0.78261 1.53796,-0.59304 3.77538,-1.75641 4.70365,-2.44572 0.29995,-0.22273 0.97821,-0.7227 1.50725,-1.11106 0.52905,-0.38836 1.26124,-0.95151 1.6271,-1.25145 0.66765,-0.54737 5.78394,-5.59465 6.84698,-6.75464 l 0.56765,-0.61943 -1.7297,0.058 c -1.86464,0.0625 -4.95152,-0.20541 -4.64024,-0.40267 0.15165,-0.0961 0.15,-0.11683 -0.009,-0.11856 -0.10623,-9.2e-4 -0.15932,-0.0359 -0.11797,-0.0773 0.0414,-0.0414 0.93139,-0.12916 1.97789,-0.19514 2.70889,-0.1708 4.32205,-0.61238 6.43817,-1.76238 1.07375,-0.58353 1.5152,-0.99039 6.52245,-6.01124 2.95391,-2.96194 5.42341,-5.4828 5.48779,-5.60192 0.0924,-0.17104 -0.11188,-0.13556 -0.97184,0.16875 -1.33065,0.47088 -2.66462,0.6437 -3.92721,0.50879 -1.89233,-0.20219 -2.05583,-0.66955 -0.32121,-0.91819 2.88417,-0.41342 4.46963,-1.07003 6.85099,-2.8373 1.34994,-1.00183 4.04556,-3.6725 5.26259,-5.21389 0.1425,-0.18047 0.44518,-0.54859 0.67262,-0.81803 1.77011,-2.09699 4.51822,-5.97945 6.26703,-8.8539 0.075,-0.12325 0.23522,-0.37774 0.35607,-0.56553 0.12085,-0.18778 0.61852,-1.10832 1.10592,-2.04565 0.4874,-0.93732 1.05003,-1.99564 1.25029,-2.35182 0.20024,-0.35619 0.32849,-0.64761 0.28499,-0.64761 -0.0435,0 -0.39825,0.2015 -0.78833,0.44779 -1.70428,1.07605 -4.16067,2.10147 -6.63992,2.77184 -1.41879,0.38363 -4.97754,0.34877 -6.72532,-0.0659 -0.73698,-0.17485 -1.50389,-0.40342 -1.70422,-0.50795 -0.20034,-0.10452 -0.44299,-0.19042 -0.53921,-0.19088 -0.5274,-0.003 -2.68815,-1.46386 -2.68815,-1.81801 0,-0.20131 0.30111,-0.23288 2.72677,-0.2859 1.96653,-0.043 3.08786,-0.13347 4.02197,-0.32459 1.75174,-0.3584 3.10595,-0.69531 3.68112,-0.91581 0.26245,-0.10061 0.99868,-0.37741 1.63606,-0.6151 1.9783,-0.73774 4.32013,-1.9251 5.99886,-3.04156 2.23398,-1.48572 3.65814,-2.69413 4.91307,-4.16875 0.40973,-0.48146 0.85083,-0.98612 0.98023,-1.12147 0.1294,-0.13536 0.49054,-0.63105 0.80253,-1.10153 0.31199,-0.470491 0.7334,-1.100841 0.93646,-1.400785 1.10458,-1.631551 2.41329,-4.484201 3.02357,-6.590566 0.22464,-0.775348 0.38403,-1.434129 0.3542,-1.463956 -0.0298,-0.02982 -0.19904,0.14441 -0.37603,0.387192 -0.74431,1.020983 -2.34918,2.827334 -2.51198,2.827334 -0.0968,0 -0.46185,0.251563 -0.81115,0.559028 -0.40081,0.35281 -0.71395,0.528765 -0.84887,0.47699 -0.17768,-0.06818 -0.14059,-0.179898 0.21944,-0.661281 2.63546,-3.523668 4.21313,-7.062243 4.42212,-9.918391 0.0867,-1.184932 -0.03,-2.563841 -0.26826,-3.169856 -0.0651,-0.165689 -0.0285,-0.238591 0.12004,-0.238591 0.38444,0 0.53485,1.008093 0.45768,3.067603 -0.0612,1.63409 -0.13041,2.08792 -0.48088,3.154086 -0.78079,2.375254 -2.34096,5.321819 -3.48647,6.584641 l -0.4243,0.467749 0.46619,-0.331411 c 0.61038,-0.433913 1.54821,-1.422741 2.69605,-2.842652 1.17221,-1.450087 1.3399,-1.523987 1.22419,-0.539538 -0.17469,1.486344 -1.58794,5.339326 -2.50573,6.831446 -0.17204,0.279708 -0.31281,0.542541 -0.31281,0.584077 0,0.142257 -2.11511,3.265491 -2.45006,3.617821 -0.11468,0.12065 -0.54376,0.61328 -0.95349,1.09473 -2.49417,2.93081 -6.79585,5.71576 -11.52546,7.46168 -3.16806,1.16949 -5.77441,1.65265 -9.17474,1.70079 -1.46335,0.0207 -2.01694,0.0702 -1.85638,0.16586 0.12584,0.075 0.38929,0.26574 0.58545,0.42391 1.29416,1.04348 4.33838,1.82566 7.1054,1.82566 3.22224,0 6.69177,-1.10196 9.96526,-3.16507 0.95716,-0.60325 1.49017,-0.80071 1.48502,-0.55013 -9.2e-4,0.0562 -0.40163,0.83847 -0.88995,1.7383 -0.48832,0.89983 -1.13435,2.13701 -1.43564,2.74929 -0.30128,0.61228 -0.63703,1.18729 -0.74611,1.27782 -0.10906,0.0905 -0.19831,0.22341 -0.19831,0.29531 0,0.0719 -0.38941,0.72393 -0.86536,1.44894 -0.47595,0.72502 -1.04346,1.60534 -1.26113,1.95627 -0.52138,0.84059 -2.22298,3.192 -3.23806,4.4746 -3.80618,4.8093 -6.5721,7.4301 -9.46664,8.96995 -1.27296,0.6772 -1.95887,0.89526 -3.91528,1.24471 l -1.36337,0.24353 0.98406,0.10148 c 1.31952,0.13607 2.14116,0.006 3.9241,-0.62194 1.68123,-0.59198 1.84057,-0.6195 1.84057,-0.31785 0,0.23291 -3.48487,3.84617 -8.37996,8.68866 -3.30187,3.26639 -4.02918,3.82359 -6.078,4.65635 -1.16714,0.47439 -2.92443,0.89099 -3.82996,0.90794 l -0.73123,0.0137 0.54535,0.13422 c 0.53082,0.13064 2.54782,0.0719 3.71521,-0.10814 0.45507,-0.0702 0.57944,-0.0472 0.57944,0.10717 0,0.22157 -6.54975,6.91964 -7.49859,7.6684 -1.41618,1.11754 -3.65203,2.78614 -4.16847,3.1109 -2.11408,1.32939 -4.58833,2.35208 -6.90815,2.85537 -2.33371,0.50629 -6.73628,0.39588 -9.63417,-0.24163 -0.23703,-0.0522 -0.10443,0.11101 0.47719,0.58717 0.75534,0.61838 1.02396,0.80521 2.46311,1.71307 0.83977,0.52976 3.09026,1.26871 4.39696,1.44375 2.49871,0.33473 5.07223,0.0571 7.63138,-0.82322 2.43596,-0.83796 4.03402,-1.75018 7.97253,-4.55095 0.36437,-0.25912 0.73248,-0.47017 0.81803,-0.46903 0.0855,9.2e-4 0.0635,0.0616 -0.049,0.13425 -0.1632,0.10547 -0.16633,0.13259 -0.0154,0.13425 0.1055,9.2e-4 -0.0753,0.29086 -0.40902,0.65533 -0.32895,0.35928 -1.14797,1.32558 -1.82003,2.14732 -2.48223,3.03506 -6.36673,7.08102 -8.38989,8.73863 -0.48741,0.39934 -1.37702,1.12904 -1.9769,1.62155 -1.30169,1.06869 -4.41064,3.15694 -6.17827,4.14988 -5.13629,2.88525 -9.33919,3.95781 -14.06793,3.59006 z m 31.45716,-32.57178 c -0.0453,-0.0453 -0.1629,-0.0501 -0.26131,-0.0107 -0.10877,0.0435 -0.0765,0.0758 0.0824,0.0824 0.14372,0.006 0.22425,-0.0263 0.17895,-0.0716 z"
       id="path309"
       sodipodi:nodetypes="sssssssssssssssssssssssssssssscsssssssssssssssssssssssssssssssssscssscsscssssssssssssssssssssssssssssssssssssssczcssscsssssssssssssssssssssccssssssssssssssssssssssssssssssssssssssssssssssssssssssssssssssssssssssssssssssssssssssssssssscsssssscsscsssssssssssssssssssssssssssssssssssssssssssscssssssssssssscssssssssscsssssscsssssssssssscscsssssssssssss" />
    <path
       d="m 119.96961,204.97822 c -1.74581,-0.34018 -3.22286,-1.15257 -4.457,-2.45131 -1.58246,-1.66532 -2.27536,-3.66903 -2.10357,-6.08309 0.11899,-1.67202 0.5955,-2.87589 1.92629,-4.86643 0.40274,-0.60241 1.24392,-2.13606 1.86927,-3.4081 1.14047,-2.31976 1.68215,-3.89818 2.49402,-7.26715 0.57203,-2.37368 1.14774,-2.97166 2.28887,-2.37738 0.65091,0.33893 0.96755,0.93342 1.09189,2.04989 0.062,0.55588 0.21781,1.19014 0.34644,1.40945 l 0.23392,0.39874 c 0.57714,0.23898 0.21268,1.23933 0.35832,1.85039 0.71253,2.79038 1.60993,4.77992 3.36487,7.45985 1.44451,2.20593 1.89178,3.33702 1.98974,5.03206 0.0894,1.54549 -0.28953,2.9831 -1.17544,4.46008 -1.01082,1.68525 -2.54285,2.92396 -4.30906,3.48402 -0.86921,0.27562 -3.16189,0.45641 -3.91856,0.30898 z m 3.97623,-0.71621 c 1.66261,-0.60173 3.01294,-1.73297 3.96675,-3.32311 1.62578,-2.71052 1.49227,-5.41811 -0.41245,-8.36353 -1.20747,-1.86723 -2.01446,-3.29803 -2.64241,-4.68502 -0.6031,-1.33217 -1.38365,-3.92724 -1.38365,-4.6003 0,-0.23307 -0.12436,-0.65748 -0.27642,-0.94315 -0.15202,-0.28567 -0.34787,-1.01294 -0.43517,-1.61612 -0.134,-0.92617 -0.22454,-1.16698 -0.5819,-1.54854 -0.53969,-0.57627 -1.12912,-0.61683 -1.46485,-0.10084 -0.26244,0.40337 -0.41187,0.8894 -1.08129,3.51742 -0.67871,2.66444 -0.99903,3.56857 -1.93972,5.47491 -0.93751,1.89994 -1.70251,3.25047 -2.44933,4.32409 -0.284,0.40825 -0.71234,1.21074 -0.95189,1.78332 -0.38502,0.92028 -0.44251,1.22355 -0.49567,2.6142 -0.0678,1.77443 0.0824,2.50976 0.78959,3.86384 0.48757,0.93363 1.81209,2.36122 2.6785,2.88689 0.3292,0.1997 1.05705,0.52998 1.61744,0.73383 0.93802,0.34125 1.14718,0.36685 2.6363,0.32273 1.22566,-0.0362 1.81334,-0.11876 2.42617,-0.34063 z m -4.04362,-2.23932 c -0.88261,-0.28109 -1.32113,-0.56266 -2.17291,-1.39528 -1.01884,-0.99592 -1.46598,-2.06494 -1.46598,-3.50492 0,-1.21163 0.39173,-2.2954 1.42543,-3.94366 1.06712,-1.70153 2.56743,-4.64563 3.09165,-6.06679 0.52391,-1.42039 0.80853,-1.56426 1.07399,-0.54295 0.0921,0.35461 0.28674,0.9807 0.43238,1.39129 0.29136,0.82141 1.79098,3.88431 2.06014,4.2078 0.4662,0.56019 1.69036,2.87969 1.89486,3.59022 0.32721,1.13697 0.21592,2.62983 -0.26769,3.59095 -0.3611,0.71757 -1.52109,1.92846 -2.17436,2.26977 -1.09128,0.57016 -2.81427,0.74857 -3.89751,0.40357 z m 2.76315,-0.38393 c 1.20894,-0.30432 2.50817,-1.42727 3.06938,-2.65293 0.40758,-0.89007 0.48277,-2.2797 0.17432,-3.22066 -0.17261,-0.52668 -1.48844,-2.91425 -1.83266,-3.32552 -0.3416,-0.40817 -2.05287,-4.02637 -2.27902,-4.81861 -0.12778,-0.44793 -0.26428,-0.90602 -0.30318,-1.01801 -0.0407,-0.11767 -0.2056,0.16906 -0.38991,0.67866 -0.44934,1.24209 -1.97573,4.27544 -2.85544,5.67457 -1.64005,2.60842 -1.96269,3.95117 -1.36608,5.68539 0.25877,0.75215 0.46894,1.07317 1.12956,1.72536 1.43266,1.41434 2.705,1.76211 4.65306,1.27175 z"
       style="fill:#800000;stroke-width:0.293333"
       id="path2814" />
    <path
       d="m 102.51229,219.07787 c -2.50941,-0.25727 -3.444599,-0.41734 -5.604695,-0.9594 -2.249767,-0.56455 -4.497375,-1.47118 -5.424707,-2.18821 -0.377885,-0.29218 -0.843101,-0.64173 -1.033821,-0.77678 -0.538547,-0.38133 -0.940913,-1.28248 -0.925248,-2.0722 0.02442,-1.23183 0.640875,-2.22634 1.807073,-2.9154 1.362904,-0.80529 1.680348,-0.93534 4.021968,-1.64774 1.239623,-0.37714 5.81561,-0.90289 9.54365,-1.09648 4.64033,-0.24098 21.24729,-0.3301 27.26759,-0.14632 6.88852,0.21027 13.96512,0.60247 17.45127,0.96716 0.74986,0.0785 1.9769,0.20535 2.72676,0.28202 8.523,0.87139 13.82631,2.2163 16.5664,4.20121 1.42768,1.03421 1.87575,2.2775 1.18838,3.29749 -0.70802,1.05064 -1.73638,1.42288 -4.78369,1.73158 -1.86368,0.18881 -2.53238,0.19628 -4.84,0.054 -2.68555,-0.16553 -4.80577,-0.3715 -7.86274,-0.76386 -0.9022,-0.1158 -2.436,-0.30304 -3.40844,-0.41611 -0.97244,-0.11305 -2.22823,-0.26982 -2.79062,-0.34835 -2.89116,-0.40375 -5.83865,-0.67417 -7.36226,-0.67547 -1.88139,-0.001 -3.13237,0.18014 -7.83943,1.13892 -9.73697,1.98332 -13.54041,2.42019 -21.60956,2.48213 -3.75289,0.0288 -5.77314,-0.0135 -7.08788,-0.14823 z m 10.76901,-0.21906 c 6.49974,-0.39483 10.00398,-0.87865 17.65576,-2.43776 4.4562,-0.90797 6.52809,-1.21997 8.1121,-1.22156 1.27324,-9.2e-4 3.74096,0.25576 10.3617,1.07927 9.76904,1.21512 8.95217,1.14264 12.95211,1.14915 4.08284,0.007 5.08795,-0.11672 6.47391,-0.79482 1.61695,-0.7911 1.5403,-2.37327 -0.17518,-3.61596 -2.194,-1.58933 -7.54921,-3.16027 -12.57028,-3.68747 -0.71236,-0.0748 -1.44859,-0.16553 -1.63605,-0.20161 -0.76967,-0.14815 -5.75414,-0.62244 -8.53911,-0.81252 -1.63981,-0.11192 -3.87107,-0.26513 -4.95837,-0.34045 -6.14789,-0.42592 -19.57283,-0.62741 -28.35828,-0.42559 -8.21327,0.18867 -12.837675,0.49467 -15.80979,1.04611 -1.360867,0.2525 -3.848339,1.04883 -4.436396,1.42026 -0.224956,0.14209 -0.598667,0.35548 -0.830467,0.47419 -0.895651,0.45871 -1.696218,1.70454 -1.688787,2.62807 0.0046,0.54302 0.458985,1.45755 0.871147,1.75244 0.19664,0.14069 0.696722,0.51297 1.111295,0.82732 2.006369,1.5213 6.87625,2.7453 12.602718,3.16761 1.89021,0.1394 6.51456,0.13591 8.86197,-0.007 z"
       style="fill:#000000;stroke-width:0.136338"
       id="path2846" />
  </g>
</svg>
